# xmcd CD database file
#
# Track frame offsets:
#	150
#	13602
#	28085
#	41391
#	54930
#	69009
#	83910
#	97205
#	110786
#	124945
#
# Disc length: 1848 seconds
#
# Revision: 0
# Processed by: cddbd v1.5.1PL2 Copyright (c) Steve Scherf et al.
# Submitted via: CDex 1.60beta1-cs1
#
DISCID=7e07360a
DTITLE=Various Artist - Jazz Vocals Before Work
DYEAR=1900
DGENRE=Jazz
TTITLE0=I Apologize
TTITLE1=Again
TTITLE2=It's Only A Paper Moon
TTITLE3=It's Been A Long Long Time
TTITLE4=If
TTITLE5=Embraceable You
TTITLE6=Candy Kisses
TTITLE7=Golden Earrings
TTITLE8=Day By Day
TTITLE9=Dream
EXTD=
EXTT0=
EXTT1=
EXTT2=
EXTT3=
EXTT4=
EXTT5=
EXTT6=
EXTT7=
EXTT8=
EXTT9=
PLAYORDER=
